<?xml version="1.0" standalone="no"?>
<svg xmlns:xlink="http://www.w3.org/1999/xlink" id="wave" style="transform:rotate(0deg); transition: 0.3s" viewBox="0 0 1440 490" version="1.1" xmlns="http://www.w3.org/2000/svg"><defs><linearGradient id="sw-gradient-0" x1="0" x2="0" y1="1" y2="0"><stop stop-color="rgba(55.29, 113.98, 182.513, 1)" offset="0%"/><stop stop-color="rgba(86.681, 162.68, 230.325, 1)" offset="100%"/></linearGradient></defs><path style="transform:translate(0, 0px); opacity:1" fill="url(#sw-gradient-0)" d="M0,0L80,24.5C160,49,320,98,480,130.7C640,163,800,180,960,171.5C1120,163,1280,131,1440,98C1600,65,1760,33,1920,16.3C2080,0,2240,0,2400,73.5C2560,147,2720,294,2880,334.8C3040,376,3200,310,3360,277.7C3520,245,3680,245,3840,253.2C4000,261,4160,278,4320,269.5C4480,261,4640,229,4800,187.8C4960,147,5120,98,5280,65.3C5440,33,5600,16,5760,24.5C5920,33,6080,65,6240,81.7C6400,98,6560,98,6720,130.7C6880,163,7040,229,7200,277.7C7360,327,7520,359,7680,367.5C7840,376,8000,359,8160,310.3C8320,261,8480,180,8640,163.3C8800,147,8960,196,9120,204.2C9280,212,9440,180,9600,163.3C9760,147,9920,147,10080,155.2C10240,163,10400,180,10560,171.5C10720,163,10880,131,11040,147C11200,163,11360,229,11440,261.3L11520,294L11520,490L11440,490C11360,490,11200,490,11040,490C10880,490,10720,490,10560,490C10400,490,10240,490,10080,490C9920,490,9760,490,9600,490C9440,490,9280,490,9120,490C8960,490,8800,490,8640,490C8480,490,8320,490,8160,490C8000,490,7840,490,7680,490C7520,490,7360,490,7200,490C7040,490,6880,490,6720,490C6560,490,6400,490,6240,490C6080,490,5920,490,5760,490C5600,490,5440,490,5280,490C5120,490,4960,490,4800,490C4640,490,4480,490,4320,490C4160,490,4000,490,3840,490C3680,490,3520,490,3360,490C3200,490,3040,490,2880,490C2720,490,2560,490,2400,490C2240,490,2080,490,1920,490C1760,490,1600,490,1440,490C1280,490,1120,490,960,490C800,490,640,490,480,490C320,490,160,490,80,490L0,490Z"/></svg>