<?xml version="1.0" standalone="no"?>
<svg xmlns:xlink="http://www.w3.org/1999/xlink" id="wave" style="transform:rotate(0deg); transition: 0.3s" viewBox="0 0 1440 320" version="1.1" xmlns="http://www.w3.org/2000/svg"><defs><linearGradient id="sw-gradient-0" x1="0" x2="0" y1="1" y2="0"><stop stop-color="rgba(8.32, 91.201, 116.486, 1)" offset="0%"/><stop stop-color="rgba(143.77, 176.939, 228.049, 1)" offset="100%"/></linearGradient></defs><path style="transform:translate(0, 0px); opacity:1" fill="url(#sw-gradient-0)" d="M0,32L80,48C160,64,320,96,480,101.3C640,107,800,85,960,74.7C1120,64,1280,64,1440,69.3C1600,75,1760,85,1920,112C2080,139,2240,181,2400,202.7C2560,224,2720,224,2880,234.7C3040,245,3200,267,3360,240C3520,213,3680,139,3840,90.7C4000,43,4160,21,4320,42.7C4480,64,4640,128,4800,133.3C4960,139,5120,85,5280,53.3C5440,21,5600,11,5760,37.3C5920,64,6080,128,6240,149.3C6400,171,6560,149,6720,117.3C6880,85,7040,43,7200,26.7C7360,11,7520,21,7680,37.3C7840,53,8000,75,8160,96C8320,117,8480,139,8640,144C8800,149,8960,139,9120,122.7C9280,107,9440,85,9600,85.3C9760,85,9920,107,10080,128C10240,149,10400,171,10560,181.3C10720,192,10880,192,11040,202.7C11200,213,11360,235,11440,245.3L11520,256L11520,320L11440,320C11360,320,11200,320,11040,320C10880,320,10720,320,10560,320C10400,320,10240,320,10080,320C9920,320,9760,320,9600,320C9440,320,9280,320,9120,320C8960,320,8800,320,8640,320C8480,320,8320,320,8160,320C8000,320,7840,320,7680,320C7520,320,7360,320,7200,320C7040,320,6880,320,6720,320C6560,320,6400,320,6240,320C6080,320,5920,320,5760,320C5600,320,5440,320,5280,320C5120,320,4960,320,4800,320C4640,320,4480,320,4320,320C4160,320,4000,320,3840,320C3680,320,3520,320,3360,320C3200,320,3040,320,2880,320C2720,320,2560,320,2400,320C2240,320,2080,320,1920,320C1760,320,1600,320,1440,320C1280,320,1120,320,960,320C800,320,640,320,480,320C320,320,160,320,80,320L0,320Z"/></svg>